<mxfile host="65bd71144e">
    <diagram id="PJhBvZbjIUu8iOUgB9s-" name="ページ1">
        <mxGraphModel dx="1296" dy="925" grid="1" gridSize="10" guides="1" tooltips="1" connect="1" arrows="1" fold="1" page="1" pageScale="1" pageWidth="827" pageHeight="1169" math="0" shadow="0">
            <root>
                <mxCell id="0"/>
                <mxCell id="1" parent="0"/>
                <mxCell id="97" value="#004 感情分析結果を閲覧する" style="swimlane;whiteSpace=wrap;html=1;swimlaneLine=1;startSize=20;rounded=0;" vertex="1" parent="1">
                    <mxGeometry x="90" y="40" width="760" height="480" as="geometry"/>
                </mxCell>
                <mxCell id="98" value="ユーザー" style="swimlane;whiteSpace=wrap;html=1;" vertex="1" parent="97">
                    <mxGeometry y="20" width="320" height="460" as="geometry">
                        <mxRectangle y="20" width="90" height="30" as="alternateBounds"/>
                    </mxGeometry>
                </mxCell>
                <mxCell id="99" style="edgeStyle=none;html=1;exitX=0.5;exitY=1;exitDx=0;exitDy=0;entryX=0.5;entryY=0;entryDx=0;entryDy=0;rounded=0;" edge="1" parent="98" source="100" target="101">
                    <mxGeometry relative="1" as="geometry"/>
                </mxCell>
                <mxCell id="100" value="" style="ellipse;whiteSpace=wrap;html=1;aspect=fixed;fillColor=#000000;" vertex="1" parent="98">
                    <mxGeometry x="140" y="60" width="40" height="40" as="geometry"/>
                </mxCell>
                <mxCell id="101" value="「感情分析結果を見る」&lt;br&gt;を選択する" style="rounded=1;whiteSpace=wrap;html=1;fillColor=none;" vertex="1" parent="98">
                    <mxGeometry x="90" y="140" width="140" height="40" as="geometry"/>
                </mxCell>
                <mxCell id="102" value="システム" style="swimlane;whiteSpace=wrap;html=1;" vertex="1" parent="97">
                    <mxGeometry x="320" y="20" width="440" height="460" as="geometry">
                        <mxRectangle x="320" y="20" width="90" height="30" as="alternateBounds"/>
                    </mxGeometry>
                </mxCell>
                <mxCell id="103" style="edgeStyle=none;html=1;exitX=0.5;exitY=1;exitDx=0;exitDy=0;entryX=0.5;entryY=0;entryDx=0;entryDy=0;" edge="1" parent="102" source="104" target="110">
                    <mxGeometry relative="1" as="geometry"/>
                </mxCell>
                <mxCell id="104" value="「感情分析結果を表示する画面」&lt;br&gt;を表示する" style="rounded=1;whiteSpace=wrap;html=1;fillColor=none;" vertex="1" parent="102">
                    <mxGeometry x="45" y="250" width="190" height="40" as="geometry"/>
                </mxCell>
                <mxCell id="105" style="edgeStyle=orthogonalEdgeStyle;html=1;exitX=1;exitY=0.5;exitDx=0;exitDy=0;fontColor=#000000;rounded=0;" edge="1" parent="102">
                    <mxGeometry relative="1" as="geometry">
                        <mxPoint x="305" y="325" as="sourcePoint"/>
                    </mxGeometry>
                </mxCell>
                <mxCell id="106" style="edgeStyle=orthogonalEdgeStyle;html=1;exitX=0.5;exitY=1;exitDx=0;exitDy=0;rounded=0;" edge="1" parent="102" source="108" target="104">
                    <mxGeometry relative="1" as="geometry"/>
                </mxCell>
                <mxCell id="107" style="edgeStyle=orthogonalEdgeStyle;rounded=0;html=1;exitX=1;exitY=0.5;exitDx=0;exitDy=0;entryX=0.5;entryY=0;entryDx=0;entryDy=0;" edge="1" parent="102" source="108" target="114">
                    <mxGeometry relative="1" as="geometry"/>
                </mxCell>
                <mxCell id="108" value="" style="rhombus;whiteSpace=wrap;html=1;rounded=0;shadow=0;sketch=0;fillStyle=auto;strokeColor=default;strokeWidth=1;fontColor=#000000;fillColor=none;" vertex="1" parent="102">
                    <mxGeometry x="120" y="147.5" width="40" height="25" as="geometry"/>
                </mxCell>
                <mxCell id="109" value="" style="group" vertex="1" connectable="0" parent="102">
                    <mxGeometry x="120" y="350" width="140" height="40" as="geometry"/>
                </mxCell>
                <mxCell id="110" value="" style="ellipse;shape=doubleEllipse;whiteSpace=wrap;html=1;aspect=fixed;rounded=0;fillColor=none;" vertex="1" parent="109">
                    <mxGeometry width="40" height="40" as="geometry"/>
                </mxCell>
                <mxCell id="111" value="" style="ellipse;whiteSpace=wrap;html=1;aspect=fixed;fillColor=#000000;" vertex="1" parent="109">
                    <mxGeometry x="5.003636363636363" y="5" width="30" height="30" as="geometry"/>
                </mxCell>
                <mxCell id="112" value="[記録された日記が存在する場合]" style="text;html=1;strokeColor=none;fillColor=none;align=center;verticalAlign=middle;whiteSpace=wrap;rounded=0;shadow=0;sketch=0;fillStyle=auto;strokeWidth=1;fontColor=#000000;" vertex="1" parent="102">
                    <mxGeometry x="140" y="200" width="190" height="30" as="geometry"/>
                </mxCell>
                <mxCell id="113" style="edgeStyle=orthogonalEdgeStyle;rounded=0;html=1;exitX=0.5;exitY=1;exitDx=0;exitDy=0;entryX=1;entryY=0.5;entryDx=0;entryDy=0;" edge="1" parent="102" source="114" target="110">
                    <mxGeometry relative="1" as="geometry"/>
                </mxCell>
                <mxCell id="114" value="「感情分析結果が存在しません」と出力する" style="rounded=1;whiteSpace=wrap;html=1;fillColor=none;" vertex="1" parent="102">
                    <mxGeometry x="250" y="250" width="180" height="40" as="geometry"/>
                </mxCell>
                <mxCell id="115" value="[記録された日記が存在しない場合]" style="text;html=1;strokeColor=none;fillColor=none;align=center;verticalAlign=middle;whiteSpace=wrap;rounded=0;shadow=0;sketch=0;fillStyle=auto;strokeWidth=1;fontColor=#000000;" vertex="1" parent="102">
                    <mxGeometry x="170" y="130" width="190" height="30" as="geometry"/>
                </mxCell>
                <mxCell id="116" style="edgeStyle=orthogonalEdgeStyle;html=1;exitX=1;exitY=0.5;exitDx=0;exitDy=0;entryX=0;entryY=0.5;entryDx=0;entryDy=0;rounded=0;" edge="1" parent="97" source="101" target="108">
                    <mxGeometry relative="1" as="geometry"/>
                </mxCell>
            </root>
        </mxGraphModel>
    </diagram>
</mxfile>